# MagicaVoxel @ Ephtracy

# group
o 

# material
mtllib rocket_middile.mtl
usemtl palette

# normals
vn -1 0 0
vn 1 0 0
vn 0 0 1
vn 0 0 -1
vn 0 -1 0
vn 0 1 0

# texcoords
vt 0.958984 0.5
vt 0.994141 0.5

# verts
v -1.4 1.4 0.4
v -1.4 1.4 0.1
v -1.4 2.3 0.4
v -1.4 2.3 0.1
v -1.3 1.4 0.5
v -1.3 1.4 0.4
v -1.3 1.4 0.1
v -1.3 1.4 -5.96046e-008
v -1.3 2.3 0.5
v -1.3 2.3 0.4
v -1.3 2.3 0.1
v -1.3 2.3 -5.96046e-008
v -1.3 2.5 0.4
v -1.3 2.5 0.1
v -1.2 2.5 0.4
v -1.2 2.5 0.1
v -1.2 2.7 0.4
v -1.2 2.7 0.1
v -1.1 2.7 0.4
v -1.1 2.7 0.1
v -1.1 2.9 0.4
v -1.1 2.9 0.1
v -1 2.3 0.5
v -1 2.3 0.4
v -1 2.3 0.1
v -1 2.3 -5.96046e-008
v -1 2.9 0.4
v -1 2.9 0.1
v -1 3.1 0.5
v -1 3.1 -5.96046e-008
v -0.9 1.4 0.6
v -0.9 1.4 0.4
v -0.9 1.4 0.1
v -0.9 1.4 -0.1
v -0.9 2.3 0.5
v -0.9 2.3 0.4
v -0.9 2.3 0.1
v -0.9 2.3 -5.96046e-008
v -0.9 3.1 0.5
v -0.9 3.1 -5.96046e-008
v -0.9 3.1 -0.1
v -0.9 3.2 0.6
v -0.9 3.2 0.5
v -0.8 1.4 0.7
v -0.8 1.4 0.6
v -0.8 1.4 -0.1
v -0.8 1.4 -0.2
v -0.8 3.1 -0.1
v -0.8 3.1 -0.2
v -0.8 3.2 0.7
v -0.8 3.2 0.6
v -0.4 3.1 0.5
v -0.4 3.1 0.4
v -0.4 3.2 0.5
v -0.4 3.2 0.4
v -0.1 1.4 0.5
v -0.1 1.4 0.4
v -0.1 1.4 0.1
v -0.1 1.4 -5.96046e-008
v -0.1 2.3 0.5
v -0.1 2.3 0.4
v -0.1 2.3 0.1
v -0.1 2.3 -5.96046e-008
v -1 1.4 0.5
v -1 1.4 0.4
v -1 1.4 0.1
v -1 1.4 -5.96046e-008
v -1 2.3 0.5
v -1 2.3 0.4
v -1 2.3 0.1
v -1 2.3 -5.96046e-008
v -0.3 1.4 0.7
v -0.3 1.4 0.6
v -0.3 1.4 -0.1
v -0.3 1.4 -0.2
v -0.3 3.1 -0.1
v -0.3 3.1 -0.2
v -0.3 3.2 0.7
v -0.3 3.2 0.6
v -0.2 1.4 0.6
v -0.2 1.4 0.4
v -0.2 1.4 0.1
v -0.2 1.4 -0.1
v -0.2 2.3 0.5
v -0.2 2.3 0.4
v -0.2 2.3 0.1
v -0.2 2.3 -5.96046e-008
v -0.2 3.1 -5.96046e-008
v -0.2 3.1 -0.1
v -0.2 3.2 0.6
v -0.2 3.2 0.5
v -0.1 2.3 0.5
v -0.1 2.3 0.4
v -0.1 2.3 0.1
v -0.1 2.3 -5.96046e-008
v -0.1 2.9 0.4
v -0.1 2.9 0.1
v -0.1 3.1 0.4
v -0.1 3.1 -5.96046e-008
v -0.1 3.2 0.5
v -0.1 3.2 0.4
v 0 2.7 0.4
v 0 2.7 0.1
v 0 2.9 0.4
v 0 2.9 0.1
v 0.1 2.5 0.4
v 0.1 2.5 0.1
v 0.1 2.7 0.4
v 0.1 2.7 0.1
v 0.2 1.4 0.5
v 0.2 1.4 0.4
v 0.2 1.4 0.1
v 0.2 1.4 -5.96046e-008
v 0.2 2.3 0.5
v 0.2 2.3 0.4
v 0.2 2.3 0.1
v 0.2 2.3 -5.96046e-008
v 0.2 2.5 0.4
v 0.2 2.5 0.1
v 0.3 1.4 0.4
v 0.3 1.4 0.1
v 0.3 2.3 0.4
v 0.3 2.3 0.1
v -0.8 1.4 0.7
v -0.8 3.2 0.7
v -0.7 2.2 0.7
v -0.7 2.3 0.7
v -0.7 2.5 0.7
v -0.7 2.6 0.7
v -0.7 2.8 0.7
v -0.7 3.2 0.7
v -0.6 2.3 0.7
v -0.6 2.5 0.7
v -0.6 2.6 0.7
v -0.6 2.7 0.7
v -0.6 2.9 0.7
v -0.6 3.2 0.7
v -0.5 2.3 0.7
v -0.5 2.7 0.7
v -0.5 2.9 0.7
v -0.5 3.2 0.7
v -0.4 2.2 0.7
v -0.4 2.3 0.7
v -0.4 2.8 0.7
v -0.4 3.2 0.7
v -0.3 1.4 0.7
v -0.3 3.2 0.7
v -0.9 1.4 0.6
v -0.9 3.2 0.6
v -0.8 1.4 0.6
v -0.8 3.2 0.6
v -0.3 1.4 0.6
v -0.3 3.2 0.6
v -0.2 1.4 0.6
v -0.2 3.2 0.6
v -1.3 1.4 0.5
v -1.3 2.3 0.5
v -1 1.4 0.5
v -1 2.3 0.5
v -1 3.1 0.5
v -0.9 2.3 0.5
v -0.9 3.1 0.5
v -0.2 2.3 0.5
v -0.2 3.2 0.5
v -0.1 1.4 0.5
v -0.1 2.3 0.5
v -0.1 3.2 0.5
v 0.2 1.4 0.5
v 0.2 2.3 0.5
v -1.4 1.4 0.4
v -1.4 2.3 0.4
v -1.3 1.4 0.4
v -1.3 2.3 0.4
v -1.3 2.5 0.4
v -1.2 2.5 0.4
v -1.2 2.7 0.4
v -1.1 2.7 0.4
v -1.1 2.9 0.4
v -1 1.4 0.4
v -1 2.3 0.4
v -1 2.9 0.4
v -0.9 1.4 0.4
v -0.9 2.3 0.4
v -0.2 1.4 0.4
v -0.2 2.3 0.4
v -0.1 1.4 0.4
v -0.1 2.3 0.4
v -0.1 2.9 0.4
v 0 2.7 0.4
v 0 2.9 0.4
v 0.1 2.5 0.4
v 0.1 2.7 0.4
v 0.2 1.4 0.4
v 0.2 2.3 0.4
v 0.2 2.5 0.4
v 0.3 1.4 0.4
v 0.3 2.3 0.4
v -0.9 3.1 0.5
v -0.9 3.2 0.5
v -0.4 3.1 0.5
v -0.4 3.2 0.5
v -0.4 3.1 0.4
v -0.4 3.2 0.4
v -0.1 3.1 0.4
v -0.1 3.2 0.4
v -1.4 1.4 0.1
v -1.4 2.3 0.1
v -1.3 1.4 0.1
v -1.3 2.3 0.1
v -1.3 2.5 0.1
v -1.2 2.5 0.1
v -1.2 2.7 0.1
v -1.1 2.7 0.1
v -1.1 2.9 0.1
v -1 1.4 0.1
v -1 2.3 0.1
v -1 2.9 0.1
v -0.9 1.4 0.1
v -0.9 2.3 0.1
v -0.2 1.4 0.1
v -0.2 2.3 0.1
v -0.1 1.4 0.1
v -0.1 2.3 0.1
v -0.1 2.9 0.1
v 0 2.7 0.1
v 0 2.9 0.1
v 0.1 2.5 0.1
v 0.1 2.7 0.1
v 0.2 1.4 0.1
v 0.2 2.3 0.1
v 0.2 2.5 0.1
v 0.3 1.4 0.1
v 0.3 2.3 0.1
v -1.3 1.4 -5.96046e-008
v -1.3 2.3 -5.96046e-008
v -1 1.4 -5.96046e-008
v -1 2.3 -5.96046e-008
v -1 3.1 -5.96046e-008
v -0.9 2.3 -5.96046e-008
v -0.9 3.1 -5.96046e-008
v -0.2 2.3 -5.96046e-008
v -0.2 3.1 -5.96046e-008
v -0.1 1.4 -5.96046e-008
v -0.1 2.3 -5.96046e-008
v -0.1 3.1 -5.96046e-008
v 0.2 1.4 -5.96046e-008
v 0.2 2.3 -5.96046e-008
v -0.9 1.4 -0.1
v -0.9 3.1 -0.1
v -0.8 1.4 -0.1
v -0.8 3.1 -0.1
v -0.3 1.4 -0.1
v -0.3 3.1 -0.1
v -0.2 1.4 -0.1
v -0.2 3.1 -0.1
v -0.8 1.4 -0.2
v -0.8 3.1 -0.2
v -0.7 2.2 -0.2
v -0.7 2.3 -0.2
v -0.7 2.9 -0.2
v -0.7 3.1 -0.2
v -0.6 2.3 -0.2
v -0.6 2.8 -0.2
v -0.6 3 -0.2
v -0.6 3.1 -0.2
v -0.5 2.3 -0.2
v -0.5 2.6 -0.2
v -0.5 2.7 -0.2
v -0.5 2.8 -0.2
v -0.5 3 -0.2
v -0.5 3.1 -0.2
v -0.4 2.2 -0.2
v -0.4 2.3 -0.2
v -0.4 2.6 -0.2
v -0.4 2.7 -0.2
v -0.4 2.9 -0.2
v -0.4 3.1 -0.2
v -0.3 1.4 -0.2
v -0.3 3.1 -0.2
v -0.8 1.4 0.7
v -0.3 1.4 0.7
v -0.9 1.4 0.6
v -0.8 1.4 0.6
v -0.3 1.4 0.6
v -0.2 1.4 0.6
v -1.3 1.4 0.5
v -1 1.4 0.5
v -0.1 1.4 0.5
v 0.2 1.4 0.5
v -1.4 1.4 0.4
v -1.3 1.4 0.4
v -1 1.4 0.4
v -0.9 1.4 0.4
v -0.2 1.4 0.4
v -0.1 1.4 0.4
v 0.2 1.4 0.4
v 0.3 1.4 0.4
v -1.4 1.4 0.1
v -1.3 1.4 0.1
v -1 1.4 0.1
v -0.9 1.4 0.1
v -0.2 1.4 0.1
v -0.1 1.4 0.1
v 0.2 1.4 0.1
v 0.3 1.4 0.1
v -1.3 1.4 -5.96046e-008
v -1 1.4 -5.96046e-008
v -0.1 1.4 -5.96046e-008
v 0.2 1.4 -5.96046e-008
v -0.9 1.4 -0.1
v -0.8 1.4 -0.1
v -0.3 1.4 -0.1
v -0.2 1.4 -0.1
v -0.8 1.4 -0.2
v -0.3 1.4 -0.2
v -1 2.3 0.5
v -0.9 2.3 0.5
v -0.2 2.3 0.5
v -0.1 2.3 0.5
v -1 2.3 0.4
v -0.9 2.3 0.4
v -0.2 2.3 0.4
v -0.1 2.3 0.4
v -1 2.3 0.1
v -0.9 2.3 0.1
v -0.2 2.3 0.1
v -0.1 2.3 0.1
v -1 2.3 -5.96046e-008
v -0.9 2.3 -5.96046e-008
v -0.2 2.3 -5.96046e-008
v -0.1 2.3 -5.96046e-008
v -1.3 2.3 0.5
v -1 2.3 0.5
v -0.1 2.3 0.5
v 0.2 2.3 0.5
v -1.4 2.3 0.4
v -1.3 2.3 0.4
v -1 2.3 0.4
v -0.1 2.3 0.4
v 0.2 2.3 0.4
v 0.3 2.3 0.4
v -1.4 2.3 0.1
v -1.3 2.3 0.1
v -1 2.3 0.1
v -0.1 2.3 0.1
v 0.2 2.3 0.1
v 0.3 2.3 0.1
v -1.3 2.3 -5.96046e-008
v -1 2.3 -5.96046e-008
v -0.1 2.3 -5.96046e-008
v 0.2 2.3 -5.96046e-008
v -1.3 2.5 0.4
v -1.2 2.5 0.4
v 0.1 2.5 0.4
v 0.2 2.5 0.4
v -1.3 2.5 0.1
v -1.2 2.5 0.1
v 0.1 2.5 0.1
v 0.2 2.5 0.1
v -1.2 2.7 0.4
v -1.1 2.7 0.4
v 0 2.7 0.4
v 0.1 2.7 0.4
v -1.2 2.7 0.1
v -1.1 2.7 0.1
v 0 2.7 0.1
v 0.1 2.7 0.1
v -1.1 2.9 0.4
v -1 2.9 0.4
v -0.1 2.9 0.4
v 0 2.9 0.4
v -1.1 2.9 0.1
v -1 2.9 0.1
v -0.1 2.9 0.1
v 0 2.9 0.1
v -1 3.1 0.5
v -0.9 3.1 0.5
v -0.4 3.1 0.5
v -0.4 3.1 0.4
v -0.1 3.1 0.4
v -1 3.1 -5.96046e-008
v -0.9 3.1 -5.96046e-008
v -0.2 3.1 -5.96046e-008
v -0.1 3.1 -5.96046e-008
v -0.9 3.1 -0.1
v -0.8 3.1 -0.1
v -0.7 3.1 -0.1
v -0.6 3.1 -0.1
v -0.5 3.1 -0.1
v -0.4 3.1 -0.1
v -0.3 3.1 -0.1
v -0.2 3.1 -0.1
v -0.8 3.1 -0.2
v -0.7 3.1 -0.2
v -0.6 3.1 -0.2
v -0.5 3.1 -0.2
v -0.4 3.1 -0.2
v -0.3 3.1 -0.2
v -0.8 3.2 0.7
v -0.7 3.2 0.7
v -0.6 3.2 0.7
v -0.5 3.2 0.7
v -0.4 3.2 0.7
v -0.3 3.2 0.7
v -0.9 3.2 0.6
v -0.8 3.2 0.6
v -0.7 3.2 0.6
v -0.6 3.2 0.6
v -0.5 3.2 0.6
v -0.4 3.2 0.6
v -0.3 3.2 0.6
v -0.2 3.2 0.6
v -0.9 3.2 0.5
v -0.4 3.2 0.5
v -0.2 3.2 0.5
v -0.1 3.2 0.5
v -0.4 3.2 0.4
v -0.1 3.2 0.4

# faces
f 3/1/1 2/1/1 1/1/1
f 4/1/1 2/1/1 3/1/1
f 9/1/1 6/1/1 5/1/1
f 10/1/1 6/1/1 9/1/1
f 11/1/1 8/1/1 7/1/1
f 12/1/1 8/1/1 11/1/1
f 13/1/1 11/1/1 10/1/1
f 14/1/1 11/1/1 13/1/1
f 17/1/1 16/1/1 15/1/1
f 18/1/1 16/1/1 17/1/1
f 21/1/1 20/1/1 19/1/1
f 22/1/1 20/1/1 21/1/1
f 27/1/1 24/1/1 23/1/1
f 28/1/1 26/1/1 25/1/1
f 29/1/1 27/1/1 23/1/1
f 29/1/1 28/1/1 27/1/1
f 30/1/1 26/1/1 28/1/1
f 30/1/1 28/1/1 29/1/1
f 35/1/1 32/1/1 31/1/1
f 36/1/1 32/1/1 35/1/1
f 37/1/1 34/1/1 33/1/1
f 38/1/1 34/1/1 37/1/1
f 39/1/1 35/1/1 31/1/1
f 40/1/1 34/1/1 38/1/1
f 41/1/1 34/1/1 40/1/1
f 42/1/1 39/1/1 31/1/1
f 43/1/1 39/1/1 42/1/1
f 48/1/1 47/1/1 46/1/1
f 49/1/1 47/1/1 48/1/1
f 50/1/1 45/1/1 44/1/1
f 51/1/1 45/1/1 50/1/1
f 54/1/1 53/1/1 52/1/1
f 55/1/1 53/1/1 54/1/1
f 60/1/1 57/1/1 56/1/1
f 61/1/1 57/1/1 60/1/1
f 62/1/1 59/1/1 58/1/1
f 63/1/1 59/1/1 62/1/1
f 64/1/2 65/1/2 68/1/2
f 68/1/2 65/1/2 69/1/2
f 66/1/2 67/1/2 70/1/2
f 70/1/2 67/1/2 71/1/2
f 74/1/2 75/1/2 76/1/2
f 76/1/2 75/1/2 77/1/2
f 72/1/2 73/1/2 78/1/2
f 78/1/2 73/1/2 79/1/2
f 80/1/2 81/1/2 84/1/2
f 84/1/2 81/1/2 85/1/2
f 82/1/2 83/1/2 86/1/2
f 86/1/2 83/1/2 87/1/2
f 87/1/2 83/1/2 88/1/2
f 88/1/2 83/1/2 89/1/2
f 80/1/2 84/1/2 90/1/2
f 90/1/2 84/1/2 91/1/2
f 92/1/2 93/1/2 96/1/2
f 94/1/2 95/1/2 97/1/2
f 92/1/2 96/1/2 98/1/2
f 96/1/2 97/1/2 98/1/2
f 97/1/2 95/1/2 99/1/2
f 98/1/2 97/1/2 99/1/2
f 92/1/2 98/1/2 100/1/2
f 100/1/2 98/1/2 101/1/2
f 102/1/2 103/1/2 104/1/2
f 104/1/2 103/1/2 105/1/2
f 106/1/2 107/1/2 108/1/2
f 108/1/2 107/1/2 109/1/2
f 110/1/2 111/1/2 114/1/2
f 114/1/2 111/1/2 115/1/2
f 112/1/2 113/1/2 116/1/2
f 116/1/2 113/1/2 117/1/2
f 115/1/2 116/1/2 118/1/2
f 118/1/2 116/1/2 119/1/2
f 120/1/2 121/1/2 122/1/2
f 122/1/2 121/1/2 123/1/2
f 126/1/3 125/1/3 124/1/3
f 127/1/3 125/1/3 126/1/3
f 128/1/3 125/1/3 127/1/3
f 129/1/3 125/1/3 128/1/3
f 130/1/3 125/1/3 129/1/3
f 131/1/3 125/1/3 130/1/3
f 132/2/3 127/2/3 126/2/3
f 132/1/3 128/1/3 127/1/3
f 133/2/3 129/2/3 128/2/3
f 133/1/3 128/1/3 132/1/3
f 134/1/3 130/1/3 129/1/3
f 134/2/3 129/2/3 133/2/3
f 135/1/3 130/1/3 134/1/3
f 136/2/3 131/2/3 130/2/3
f 137/2/3 131/2/3 136/2/3
f 138/2/3 132/2/3 126/2/3
f 138/2/3 133/2/3 132/2/3
f 138/2/3 134/2/3 133/2/3
f 138/2/3 135/2/3 134/2/3
f 139/1/3 130/1/3 135/1/3
f 139/2/3 135/2/3 138/2/3
f 140/1/3 137/1/3 136/1/3
f 140/2/3 136/2/3 130/2/3
f 141/1/3 137/1/3 140/1/3
f 142/1/3 126/1/3 124/1/3
f 142/2/3 138/2/3 126/2/3
f 143/1/3 139/1/3 138/1/3
f 143/2/3 138/2/3 142/2/3
f 144/2/3 141/2/3 140/2/3
f 144/1/3 139/1/3 143/1/3
f 144/1/3 130/1/3 139/1/3
f 144/2/3 140/2/3 130/2/3
f 145/2/3 141/2/3 144/2/3
f 146/1/3 143/1/3 142/1/3
f 146/1/3 142/1/3 124/1/3
f 146/1/3 145/1/3 144/1/3
f 146/1/3 144/1/3 143/1/3
f 147/1/3 145/1/3 146/1/3
f 150/1/3 149/1/3 148/1/3
f 151/1/3 149/1/3 150/1/3
f 154/1/3 153/1/3 152/1/3
f 155/1/3 153/1/3 154/1/3
f 158/1/3 157/1/3 156/1/3
f 159/1/3 157/1/3 158/1/3
f 161/1/3 160/1/3 159/1/3
f 162/1/3 160/1/3 161/1/3
f 166/1/3 164/1/3 163/1/3
f 167/1/3 164/1/3 166/1/3
f 168/1/3 166/1/3 165/1/3
f 169/1/3 166/1/3 168/1/3
f 172/1/3 171/1/3 170/1/3
f 173/1/3 171/1/3 172/1/3
f 175/1/3 174/1/3 173/1/3
f 177/1/3 176/1/3 175/1/3
f 180/1/3 175/1/3 173/1/3
f 180/1/3 178/1/3 177/1/3
f 180/1/3 177/1/3 175/1/3
f 181/1/3 178/1/3 180/1/3
f 182/1/3 180/1/3 179/1/3
f 183/1/3 180/1/3 182/1/3
f 186/1/3 185/1/3 184/1/3
f 187/1/3 185/1/3 186/1/3
f 189/1/3 188/1/3 187/1/3
f 190/1/3 188/1/3 189/1/3
f 191/1/3 189/1/3 187/1/3
f 192/1/3 189/1/3 191/1/3
f 194/1/3 191/1/3 187/1/3
f 195/1/3 191/1/3 194/1/3
f 196/1/3 194/1/3 193/1/3
f 197/1/3 194/1/3 196/1/3
f 198/1/4 199/1/4 200/1/4
f 200/1/4 199/1/4 201/1/4
f 202/1/4 203/1/4 204/1/4
f 204/1/4 203/1/4 205/1/4
f 206/1/4 207/1/4 208/1/4
f 208/1/4 207/1/4 209/1/4
f 209/1/4 210/1/4 211/1/4
f 211/1/4 212/1/4 213/1/4
f 209/1/4 211/1/4 216/1/4
f 213/1/4 214/1/4 216/1/4
f 211/1/4 213/1/4 216/1/4
f 216/1/4 214/1/4 217/1/4
f 215/1/4 216/1/4 218/1/4
f 218/1/4 216/1/4 219/1/4
f 220/1/4 221/1/4 222/1/4
f 222/1/4 221/1/4 223/1/4
f 223/1/4 224/1/4 225/1/4
f 225/1/4 224/1/4 226/1/4
f 223/1/4 225/1/4 227/1/4
f 227/1/4 225/1/4 228/1/4
f 223/1/4 227/1/4 230/1/4
f 230/1/4 227/1/4 231/1/4
f 229/1/4 230/1/4 232/1/4
f 232/1/4 230/1/4 233/1/4
f 234/1/4 235/1/4 236/1/4
f 236/1/4 235/1/4 237/1/4
f 237/1/4 238/1/4 239/1/4
f 239/1/4 238/1/4 240/1/4
f 241/1/4 242/1/4 244/1/4
f 244/1/4 242/1/4 245/1/4
f 243/1/4 244/1/4 246/1/4
f 246/1/4 244/1/4 247/1/4
f 248/1/4 249/1/4 250/1/4
f 250/1/4 249/1/4 251/1/4
f 252/1/4 253/1/4 254/1/4
f 254/1/4 253/1/4 255/1/4
f 256/1/4 257/1/4 258/1/4
f 258/1/4 257/1/4 259/1/4
f 259/1/4 257/1/4 260/1/4
f 260/1/4 257/1/4 261/1/4
f 258/2/4 259/2/4 262/2/4
f 259/1/4 260/1/4 262/1/4
f 262/1/4 260/1/4 263/1/4
f 260/2/4 261/2/4 264/2/4
f 264/2/4 261/2/4 265/2/4
f 258/2/4 262/2/4 266/2/4
f 262/2/4 263/2/4 266/2/4
f 266/2/4 263/2/4 267/2/4
f 267/2/4 263/2/4 268/2/4
f 263/1/4 260/1/4 269/1/4
f 268/2/4 263/2/4 269/2/4
f 264/1/4 265/1/4 270/1/4
f 260/2/4 264/2/4 270/2/4
f 270/1/4 265/1/4 271/1/4
f 256/1/4 258/1/4 272/1/4
f 258/2/4 266/2/4 272/2/4
f 266/1/4 267/1/4 273/1/4
f 272/2/4 266/2/4 273/2/4
f 267/2/4 268/2/4 274/2/4
f 273/1/4 267/1/4 274/1/4
f 268/1/4 269/1/4 275/1/4
f 274/2/4 268/2/4 275/2/4
f 269/1/4 260/1/4 276/1/4
f 275/1/4 269/1/4 276/1/4
f 270/2/4 271/2/4 276/2/4
f 260/2/4 270/2/4 276/2/4
f 276/2/4 271/2/4 277/2/4
f 272/1/4 273/1/4 278/1/4
f 274/1/4 275/1/4 278/1/4
f 276/1/4 277/1/4 278/1/4
f 275/1/4 276/1/4 278/1/4
f 256/1/4 272/1/4 278/1/4
f 273/1/4 274/1/4 278/1/4
f 278/1/4 277/1/4 279/1/4
f 283/1/5 281/1/5 280/1/5
f 284/1/5 281/1/5 283/1/5
f 291/1/5 287/1/5 286/1/5
f 292/1/5 287/1/5 291/1/5
f 293/1/5 283/1/5 282/1/5
f 293/1/5 284/1/5 283/1/5
f 293/1/5 285/1/5 284/1/5
f 294/1/5 285/1/5 293/1/5
f 295/1/5 289/1/5 288/1/5
f 296/1/5 289/1/5 295/1/5
f 298/1/5 292/1/5 291/1/5
f 298/1/5 297/1/5 296/1/5
f 298/1/5 296/1/5 295/1/5
f 298/1/5 295/1/5 294/1/5
f 298/1/5 291/1/5 290/1/5
f 298/1/5 293/1/5 292/1/5
f 298/1/5 294/1/5 293/1/5
f 299/1/5 297/1/5 298/1/5
f 300/1/5 297/1/5 299/1/5
f 301/1/5 297/1/5 300/1/5
f 302/1/5 297/1/5 301/1/5
f 303/1/5 297/1/5 302/1/5
f 304/1/5 297/1/5 303/1/5
f 305/1/5 297/1/5 304/1/5
f 306/1/5 300/1/5 299/1/5
f 307/1/5 300/1/5 306/1/5
f 308/1/5 304/1/5 303/1/5
f 309/1/5 304/1/5 308/1/5
f 310/1/5 302/1/5 301/1/5
f 311/1/5 302/1/5 310/1/5
f 312/1/5 302/1/5 311/1/5
f 313/1/5 302/1/5 312/1/5
f 314/1/5 312/1/5 311/1/5
f 315/1/5 312/1/5 314/1/5
f 320/1/5 317/1/5 316/1/5
f 321/1/5 317/1/5 320/1/5
f 322/1/5 319/1/5 318/1/5
f 323/1/5 319/1/5 322/1/5
f 328/1/5 325/1/5 324/1/5
f 329/1/5 325/1/5 328/1/5
f 330/1/5 327/1/5 326/1/5
f 331/1/5 327/1/5 330/1/5
f 332/1/6 333/1/6 337/1/6
f 337/1/6 333/1/6 338/1/6
f 334/1/6 335/1/6 339/1/6
f 339/1/6 335/1/6 340/1/6
f 336/1/6 337/1/6 342/1/6
f 342/1/6 337/1/6 343/1/6
f 340/1/6 341/1/6 346/1/6
f 346/1/6 341/1/6 347/1/6
f 343/1/6 344/1/6 348/1/6
f 348/1/6 344/1/6 349/1/6
f 345/1/6 346/1/6 350/1/6
f 350/1/6 346/1/6 351/1/6
f 352/1/6 353/1/6 356/1/6
f 356/1/6 353/1/6 357/1/6
f 354/1/6 355/1/6 358/1/6
f 358/1/6 355/1/6 359/1/6
f 360/1/6 361/1/6 364/1/6
f 364/1/6 361/1/6 365/1/6
f 362/1/6 363/1/6 366/1/6
f 366/1/6 363/1/6 367/1/6
f 368/1/6 369/1/6 372/1/6
f 372/1/6 369/1/6 373/1/6
f 370/1/6 371/1/6 374/1/6
f 374/1/6 371/1/6 375/1/6
f 376/1/6 377/1/6 379/1/6
f 377/1/6 378/1/6 379/1/6
f 376/1/6 379/1/6 381/1/6
f 379/1/6 380/1/6 381/1/6
f 381/1/6 380/1/6 382/1/6
f 382/1/6 380/1/6 383/1/6
f 383/1/6 380/1/6 384/1/6
f 382/1/6 383/1/6 385/1/6
f 385/1/6 383/1/6 386/1/6
f 386/1/6 383/1/6 387/1/6
f 387/1/6 383/1/6 388/1/6
f 388/1/6 383/1/6 389/1/6
f 389/1/6 383/1/6 390/1/6
f 390/1/6 383/1/6 391/1/6
f 391/1/6 383/1/6 392/1/6
f 386/1/6 387/1/6 393/1/6
f 387/2/6 388/2/6 394/2/6
f 393/1/6 387/1/6 394/1/6
f 388/1/6 389/1/6 395/1/6
f 394/2/6 388/2/6 395/2/6
f 389/2/6 390/2/6 396/2/6
f 395/1/6 389/1/6 396/1/6
f 390/1/6 391/1/6 397/1/6
f 396/2/6 390/2/6 397/2/6
f 397/1/6 391/1/6 398/1/6
f 399/1/6 400/1/6 406/1/6
f 400/2/6 401/2/6 407/2/6
f 406/1/6 400/1/6 407/1/6
f 401/1/6 402/1/6 408/1/6
f 407/2/6 401/2/6 408/2/6
f 402/2/6 403/2/6 409/2/6
f 408/1/6 402/1/6 409/1/6
f 403/1/6 404/1/6 410/1/6
f 409/2/6 403/2/6 410/2/6
f 410/1/6 404/1/6 411/1/6
f 408/1/6 409/1/6 413/1/6
f 411/1/6 412/1/6 413/1/6
f 410/1/6 411/1/6 413/1/6
f 409/1/6 410/1/6 413/1/6
f 405/1/6 406/1/6 413/1/6
f 407/1/6 408/1/6 413/1/6
f 406/1/6 407/1/6 413/1/6
f 413/1/6 412/1/6 414/1/6
f 414/1/6 412/1/6 415/1/6
f 415/1/6 416/1/6 417/1/6
f 414/1/6 415/1/6 417/1/6
f 417/1/6 416/1/6 418/1/6
